# Blender 4.1.1
# www.blender.org
mtllib kaczd20.mtl
o Icosphere
v 0.000000 -1.000000 0.000000
v -0.723600 -0.447215 -0.525720
v 0.276385 -0.447215 -0.850640
v 0.894425 -0.447215 0.000000
v 0.276385 -0.447215 0.850640
v -0.723600 -0.447215 0.525720
v -0.276385 0.447215 -0.850640
v 0.723600 0.447215 -0.525720
v 0.723600 0.447215 0.525720
v -0.276385 0.447215 0.850640
v -0.894425 0.447215 0.000000
v 0.000000 1.000000 0.000000
vn -0.1876 -0.7947 -0.5774
vn -0.6071 -0.7947 -0.0000
vn 0.4911 -0.7947 -0.3568
vn 0.4911 -0.7947 0.3568
vn -0.1876 -0.7947 0.5774
vn -0.9822 -0.1876 -0.0000
vn -0.3035 -0.1876 -0.9342
vn 0.7946 -0.1876 -0.5774
vn 0.7946 -0.1876 0.5774
vn -0.3035 -0.1876 0.9342
vn -0.7946 0.1876 -0.5774
vn 0.3035 0.1876 -0.9342
vn 0.9822 0.1876 -0.0000
vn 0.3035 0.1876 0.9342
vn -0.7946 0.1876 0.5774
vn -0.4911 0.7947 -0.3568
vn 0.1876 0.7947 -0.5774
vn 0.6071 0.7947 -0.0000
vn 0.1876 0.7947 0.5774
vn -0.4911 0.7947 0.3568
vt 0.493725 0.270161
vt 0.220998 0.427622
vt 0.039180 0.427622
vt 0.402816 0.427622
vt 0.948270 0.427622
vt 0.766452 0.427622
vt 0.584634 0.427622
vt 0.311907 0.585082
vt 0.222784 0.699588
vt 0.837084 0.818800
vt 0.675543 0.585082
vt 0.493725 0.585082
vt 0.007652 0.596062
vt 0.472337 1.009201
s 0
usemtl Material.002
f 1/1/1 2/2/1 3/3/1
f 2/2/2 1/1/2 6/4/2
f 1/1/3 3/5/3 4/6/3
f 1/1/4 4/6/4 5/7/4
f 1/1/5 5/7/5 6/4/5
f 2/2/6 6/4/6 11/8/6
f 3/3/7 2/2/7 7/9/7
f 4/6/8 3/5/8 8/10/8
f 5/7/9 4/6/9 9/11/9
f 6/4/10 5/7/10 10/12/10
f 2/2/11 11/8/11 7/9/11
f 3/3/12 7/9/12 8/13/12
f 4/6/13 8/10/13 9/11/13
f 5/7/14 9/11/14 10/12/14
f 6/4/15 10/12/15 11/8/15
f 7/9/16 11/8/16 12/14/16
f 8/13/17 7/9/17 12/14/17
f 9/11/18 8/10/18 12/14/18
f 10/12/19 9/11/19 12/14/19
f 11/8/20 10/12/20 12/14/20
